# This file uses centimeters as units for non-parametric coordinates.

mtllib CGJ_House_01e.mtl
g default
v -4.049420 12.109552 -6.159264
v -2.657223 12.505844 -6.159264
v -4.049420 12.125012 -7.566866
v -2.657223 12.525505 -7.566866
v -4.045643 14.789872 -7.563762
v -4.045643 14.789872 -6.175259
v -2.657139 14.789872 -6.175259
v -2.657139 14.789872 -7.563762
v -4.305346 14.789872 -5.915555
v -2.397435 14.789872 -5.915555
v -2.397435 15.323720 -5.915555
v -4.305346 15.323720 -5.915555
v -2.397435 15.323720 -7.823465
v -4.305346 15.323720 -7.823465
v -2.397435 14.789872 -7.823465
v -4.305346 14.789872 -7.823465
v -10.227742 -0.001950 10.500000
v 0.000000 -0.001950 10.500000
v 10.227742 -0.001950 10.500000
v -10.227742 10.396735 10.500000
v 0.000000 13.347837 10.500000
v 10.227742 10.396735 10.500000
v -10.227742 10.396735 -10.500000
v 0.000000 13.347837 -10.500000
v 10.227742 10.396735 -10.500000
v -10.227742 -0.001950 -10.500000
v 0.000000 -0.001950 -10.500000
v 10.227742 -0.001950 -10.500000
v 10.227742 9.527840 -10.500000
v 0.000000 12.873651 -10.500000
v -10.227742 9.527840 -10.500000
v -10.227742 9.527840 10.500000
v 0.000000 12.873651 10.500000
v 10.227742 9.527840 10.500000
v 10.227742 9.527840 0.000000
v 10.227742 10.396735 0.000000
v 0.000000 13.127679 0.000000
v -10.227742 10.396735 0.000000
v -10.227742 9.527840 0.000000
v -10.227742 -0.001950 0.000000
v 10.227742 -0.001950 0.000000
v -12.150442 9.161538 11.560364
v 0.000000 12.873651 11.560364
v 0.000000 13.454720 11.560364
v -12.150442 9.742608 11.560364
v 12.150442 9.161538 11.560364
v 12.150442 9.742608 11.560364
v -12.150442 9.742608 -11.560364
v 0.000000 13.454720 -11.560364
v 0.000000 12.873651 -11.560364
v -12.150442 9.161538 -11.560364
v 12.150442 9.742608 -11.560364
v 12.150442 9.161538 -11.560364
v 12.150442 9.161538 0.000000
v 12.150442 9.742608 0.000000
v -12.150442 9.161538 0.000000
v -12.150442 9.742608 0.000000
v -7.046124 -0.001950 0.000000
v 0.000000 -0.001950 7.233688
v -7.046124 -0.001950 7.233688
v 7.046124 -0.001950 0.000000
v 7.046124 -0.001950 7.233688
v -7.046124 -0.001950 -7.233689
v 0.000000 -0.001950 -7.233689
v 7.046124 -0.001950 -7.233689
v 10.227742 10.396735 -7.569971
v 10.227742 10.396735 -6.143270
vt 0.639422 0.632722
vt 0.692655 0.632722
vt 0.692007 0.783423
vt 0.745613 0.783423
vt 0.745613 0.807132
vt 0.692007 0.807132
vt 0.692655 0.774577
vt 0.639422 0.774577
vt 0.745887 0.632722
vt 0.638400 0.807132
vt 0.745887 0.774577
vt 0.799119 0.774577
vt 0.852826 0.783423
vt 0.799219 0.783423
vt 0.799219 0.807132
vt 0.852826 0.807132
vt 0.638400 0.783423
vt 0.780653 0.887174
vt 0.851278 0.887174
vt 0.841665 0.877561
vt 0.790267 0.877561
vt 0.702108 0.815113
vt 0.774163 0.815113
vt 0.774163 0.887168
vt 0.702108 0.887168
vt 0.841665 0.826163
vt 0.790267 0.826163
vt 0.780653 0.816550
vt 0.851278 0.816550
vt 0.852351 0.774577
vt 0.799119 0.632722
vt 0.852351 0.632722
vt 0.441480 0.377285
vt 0.715339 0.488248
vt 0.715339 0.505618
vt 0.441480 0.394654
vt 0.989198 0.377285
vt 0.989198 0.394654
vt 0.046411 0.557748
vt 0.237300 0.557748
vt 0.237300 0.763723
vt 0.046411 0.763723
vt 0.428190 0.557748
vt 0.428190 0.763723
vt 0.989198 0.394654
vt 0.715339 0.505618
vt 0.715339 0.488248
vt 0.989198 0.377285
vt 0.441480 0.394654
vt 0.441480 0.377285
vt 0.011432 0.447696
vt 0.258665 0.447696
vt 0.258665 0.467097
vt 0.011432 0.467097
vt 0.259056 0.447696
vt 0.506288 0.447696
vt 0.506288 0.467097
vt 0.259056 0.467097
vt 0.716590 0.469956
vt 0.485776 0.367757
vt 0.485776 0.018535
vt 0.716590 0.018535
vt 0.947403 0.367757
vt 0.947403 0.018535
vt 0.244333 0.017258
vt 0.469066 0.017258
vt 0.469066 0.364578
vt 0.244333 0.364578
vt 0.485776 0.018535
vt 0.716590 0.018535
vt 0.716590 0.469956
vt 0.485776 0.367757
vt 0.947404 0.018535
vt 0.947404 0.367757
vt 0.019599 0.017258
vt 0.244334 0.017258
vt 0.244334 0.364578
vt 0.019599 0.364578
vt 0.506289 0.447696
vt 0.506289 0.467097
vt 0.428190 0.969697
vt 0.237300 0.969697
vt 0.046411 0.969697
vt 0.011432 0.447696
vt 0.011432 0.467097
vt 0.019599 0.017258
vt 0.019599 0.364578
vt 0.469067 0.017258
vt 0.469067 0.364578
vt 0.951434 0.554745
vt 0.745309 0.554745
vt 0.745309 0.534036
vt 0.990183 0.534036
vt 0.010526 0.536948
vt 0.237300 0.536948
vt 0.539185 0.554745
vt 0.500436 0.534036
vt 0.464075 0.536948
vt 0.237300 0.990497
vt 0.010526 0.990497
vt 0.745309 0.964894
vt 0.951434 0.964894
vt 0.990183 0.985604
vt 0.745309 0.985604
vt 0.464075 0.990497
vt 0.539185 0.964894
vt 0.500436 0.985604
vt 0.539185 0.759820
vt 0.500436 0.759820
vt 0.464075 0.763723
vt 0.951434 0.759820
vt 0.990183 0.759820
vt 0.010526 0.763723
vt 0.744643 0.565503
vt 0.938960 0.565503
vt 0.878512 0.625950
vt 0.744643 0.625950
vt 0.938960 0.759820
vt 0.878512 0.759820
vt 0.550326 0.759820
vt 0.550326 0.565503
vt 0.610773 0.625950
vt 0.610773 0.759820
vt 0.938960 0.954137
vt 0.744643 0.954137
vt 0.744643 0.893689
vt 0.878512 0.893689
vt 0.550326 0.954137
vt 0.610773 0.893689
vt 0.428190 0.915849
vt 0.428190 0.883099
vt 0.193714 0.914986
vt 0.155872 0.914942
vt 0.192917 0.881637
vt 0.155166 0.881474
vn 0.000000 0.000000 1.000000
vn 0.000000 0.000000 1.000000
vn 0.000000 0.000000 1.000000
vn 0.000000 0.000000 1.000000
vn 0.000000 1.000000 0.000000
vn 0.000000 1.000000 0.000000
vn 0.000000 1.000000 0.000000
vn 0.000000 1.000000 0.000000
vn 0.000000 0.000000 -1.000000
vn 0.000000 0.000000 -1.000000
vn 0.000000 0.000000 -1.000000
vn 0.000000 0.000000 -1.000000
vn 1.000000 0.000000 0.000000
vn 1.000000 0.000000 0.000000
vn 1.000000 0.000000 0.000000
vn 1.000000 0.000000 0.000000
vn -1.000000 0.000000 0.000000
vn -1.000000 0.000000 0.000000
vn -1.000000 0.000000 0.000000
vn -1.000000 0.000000 0.000000
vn -0.999999 0.001413 0.000008
vn -0.999999 0.001413 0.000008
vn -0.999999 0.001413 0.000008
vn -0.999999 0.001413 0.000008
vn -0.000918 0.006445 0.999979
vn -0.000918 0.006445 0.999979
vn -0.000918 0.006445 0.999979
vn -0.000918 0.006445 0.999979
vn 1.000000 -0.000037 -0.000000
vn 1.000000 -0.000037 -0.000000
vn 1.000000 -0.000037 -0.000000
vn 1.000000 -0.000037 -0.000000
vn -0.000181 0.001260 -0.999999
vn -0.000181 0.001260 -0.999999
vn -0.000181 0.001260 -0.999999
vn -0.000181 0.001260 -0.999999
vn 0.000000 -1.000000 -0.000004
vn 0.000000 -1.000000 -0.000004
vn 0.000000 -1.000000 -0.000004
vn 0.000000 -1.000000 -0.000004
vn 0.000000 -1.000000 0.000003
vn 0.000000 -1.000000 0.000003
vn 0.000000 -1.000000 0.000003
vn 0.000000 -1.000000 0.000003
vn 0.000000 -1.000000 0.000000
vn 0.000000 -1.000000 0.000000
vn 0.000000 -1.000000 0.000000
vn 0.000000 -1.000000 0.000000
vn 0.000000 -1.000000 0.000000
vn 0.000000 -1.000000 0.000000
vn 0.000000 -1.000000 0.000000
vn 0.000000 -1.000000 0.000000
vn 0.000000 0.000000 1.000000
vn -0.000000 0.000000 1.000000
vn -0.000000 0.000000 1.000000
vn 0.000000 0.000000 1.000000
vn -0.000001 0.000000 1.000000
vn -0.000001 0.000000 1.000000
vn -0.267629 0.963469 -0.010101
vn 0.000000 0.999945 -0.010483
vn 0.051406 0.998676 -0.001971
vn -0.267141 0.963647 -0.004556
vn 0.267629 0.963469 -0.010101
vn 0.267642 0.963518 0.000000
vn 0.000000 0.000000 -1.000000
vn -0.000000 0.000000 -1.000000
vn -0.000000 0.000000 -1.000000
vn 0.000000 0.000000 -1.000000
vn -0.000001 0.000000 -1.000000
vn -0.000001 0.000000 -1.000000
vn 1.000000 0.000000 0.000000
vn 1.000000 0.000000 0.000000
vn 1.000000 0.000000 0.000000
vn 1.000000 0.000000 0.000000
vn -1.000000 0.000000 0.000000
vn -1.000000 0.000000 0.000000
vn -1.000000 0.000000 0.000000
vn -1.000000 0.000000 0.000000
vn -0.000000 0.000000 -1.000000
vn -0.000000 0.000000 -1.000000
vn -0.000000 0.000000 -1.000000
vn -0.000000 0.000000 -1.000000
vn 0.000000 0.000000 -1.000000
vn 0.000000 0.000000 -1.000000
vn -1.000000 0.000000 0.000000
vn -1.000000 0.000000 0.000000
vn -1.000000 0.000000 0.000000
vn -1.000000 0.000000 0.000000
vn 0.000000 0.000000 1.000000
vn -0.000000 0.000000 1.000000
vn -0.000000 0.000000 1.000000
vn 0.000000 0.000000 1.000000
vn -0.000000 0.000000 1.000000
vn -0.000000 0.000000 1.000000
vn 1.000000 0.000000 0.000000
vn 1.000000 0.000000 0.000000
vn 1.000000 0.000000 0.000000
vn 1.000000 0.000000 0.000000
vn 1.000000 0.000000 0.000000
vn 1.000000 0.000000 0.000000
vn 0.267629 0.963469 0.010101
vn 0.267629 0.963469 0.010101
vn 0.267629 0.963469 0.010101
vn 0.138497 0.990310 0.010281
vn -1.000000 0.000000 0.000000
vn -1.000000 0.000000 0.000000
vn -1.000000 0.000000 0.000000
vn -1.000000 0.000000 0.000000
vn 1.000000 0.000000 0.000000
vn 1.000000 0.000000 0.000000
vn 0.299049 -0.948180 0.107351
vn 0.299049 -0.948180 0.107351
vn 0.299049 -0.948180 0.107351
vn 0.299049 -0.948180 0.107351
vn -0.285355 0.958354 -0.011409
vn -0.285355 0.958354 -0.011409
vn -0.285355 0.958354 -0.011409
vn -0.285355 0.958354 -0.011409
vn -0.299049 -0.948180 0.107351
vn -0.299049 -0.948180 0.107351
vn -0.299049 -0.948180 0.107351
vn -0.299049 -0.948180 0.107351
vn 0.285355 0.958354 -0.011410
vn 0.285355 0.958354 -0.011410
vn 0.285355 0.958354 -0.011410
vn 0.285355 0.958354 -0.011410
vn -0.285355 0.958354 0.011410
vn -0.285355 0.958354 0.011410
vn -0.285355 0.958354 0.011410
vn -0.285355 0.958354 0.011410
vn 0.299049 -0.948180 -0.107351
vn 0.299049 -0.948180 -0.107351
vn 0.299049 -0.948180 -0.107351
vn 0.299049 -0.948180 -0.107351
vn 0.285355 0.958354 0.011409
vn 0.285355 0.958354 0.011409
vn 0.285355 0.958354 0.011409
vn 0.285355 0.958354 0.011409
vn -0.299049 -0.948180 -0.107351
vn -0.299049 -0.948180 -0.107351
vn -0.299049 -0.948180 -0.107351
vn -0.299049 -0.948180 -0.107351
vn -0.187148 -0.982332 0.000000
vn -0.187148 -0.982332 0.000000
vn -0.187148 -0.982332 0.000000
vn -0.187148 -0.982332 0.000000
vn 0.322083 0.946711 0.000000
vn 0.322083 0.946711 0.000000
vn 0.322083 0.946711 0.000000
vn 0.322083 0.946711 0.000000
vn 0.187148 -0.982332 0.000000
vn 0.187148 -0.982332 0.000000
vn 0.187148 -0.982332 0.000000
vn 0.187148 -0.982332 0.000000
vn -0.322083 0.946711 0.000000
vn -0.322083 0.946711 0.000000
vn -0.322083 0.946711 0.000000
vn -0.322083 0.946711 0.000000
vn -0.187148 -0.982332 0.000000
vn -0.187148 -0.982332 0.000000
vn -0.187148 -0.982332 0.000000
vn -0.187148 -0.982332 0.000000
vn 0.187148 -0.982332 0.000000
vn 0.187148 -0.982332 0.000000
vn 0.187148 -0.982332 0.000000
vn 0.187148 -0.982332 0.000000
vn -0.322083 0.946711 0.000000
vn -0.322083 0.946711 0.000000
vn -0.322083 0.946711 0.000000
vn -0.322083 0.946711 0.000000
vn 0.000000 -1.000000 0.000000
vn 0.000000 -1.000000 0.000000
vn 0.000000 -1.000000 0.000000
vn 0.000000 -1.000000 0.000000
vn 0.000000 -1.000000 0.000000
vn 0.000000 -1.000000 0.000000
vn 0.000000 -1.000000 0.000000
vn 0.000000 -1.000000 0.000000
vn 0.000000 -1.000000 0.000000
vn 0.000000 -1.000000 0.000000
vn 0.000000 -1.000000 0.000000
vn 0.000000 -1.000000 0.000000
vn 0.000000 -1.000000 -0.000000
vn 0.000000 -1.000000 -0.000000
vn 0.000000 -1.000000 -0.000000
vn 0.000000 -1.000000 -0.000000
vn 0.000000 -1.000000 0.000000
vn 0.000000 -1.000000 0.000000
vn 0.000000 -1.000000 0.000000
vn 0.000000 -1.000000 0.000000
vn 0.000000 -1.000000 0.000000
vn 0.000000 -1.000000 0.000000
vn 0.000000 -1.000000 0.000000
vn 0.000000 -1.000000 0.000000
vn 0.000000 -1.000000 0.000000
vn 0.000000 -1.000000 0.000000
vn 0.000000 -1.000000 0.000000
vn 0.000000 -1.000000 0.000000
vn 0.000000 -1.000000 0.000000
vn 0.000000 -1.000000 0.000000
vn 0.000000 -1.000000 0.000000
vn 0.000000 -1.000000 0.000000
vn 0.322083 0.946711 0.000000
vn 0.322083 0.946711 0.000000
vn 0.322083 0.946711 0.000000
vn 0.322083 0.946711 0.000000
vn 0.322083 0.946711 0.000000
vn 0.322083 0.946711 0.000000
vn -0.271490 0.962394 0.009534
vn -0.271490 0.962394 0.009534
vn -0.270507 0.962684 0.008061
vn -0.265833 0.963981 0.008613
vn -0.265833 0.963981 0.008613
s off
g House
usemtl initialShadingGroup
f 9/3/1 10/4/2 11/5/3 12/6/4
f 12/22/5 11/23/6 13/24/7 14/25/8
f 14/16/9 13/15/10 15/14/11 16/13/12
f 10/4/13 15/14/14 13/15/15 11/5/16
f 16/17/17 9/3/18 12/6/19 14/10/20
f 3/1/21 1/2/22 6/7/23 5/8/24
f 1/2/25 2/9/26 7/11/27 6/7/28
f 2/9/29 4/31/30 8/12/31 7/11/32
f 5/30/33 8/12/34 4/31/35 3/32/36
f 6/26/37 7/27/38 10/28/39 9/29/40
f 8/21/41 5/20/42 16/19/43 15/18/44
f 7/27/45 8/21/46 15/18/47 10/28/48
f 5/20/49 6/26/50 9/29/51 16/19/52
s 1
f 42/33/53 43/34/54 44/35/55 45/36/56
f 43/34/54 46/37/57 47/38/58 44/35/55
s 2
f 20/39/59 21/40/60 37/41/61 38/42/62
f 21/40/60 22/43/63 36/44/64 37/41/61
s 3
f 48/45/65 49/46/66 50/47/67 51/48/68
f 49/46/66 52/49/69 53/50/70 50/47/67
s 4
f 46/51/71 54/52/72 55/53/73 47/54/74
s 5
f 56/55/75 42/56/76 45/57/77 57/58/78
s 6
f 30/59/79 29/60/80 28/61/81 27/62/82
f 31/63/83 30/59/79 27/62/82 26/64/84
s 7
f 40/65/85 17/66/86 32/67/87 39/68/88
s 8
f 17/69/89 18/70/90 33/71/91 32/72/92
f 18/70/90 19/73/93 34/74/94 33/71/91
s 9
f 19/75/95 41/76/96 35/77/97 34/78/98
s 4
f 54/52/72 53/79/99 52/80/100 55/53/73
s 2
f 67/131/101 66/130/102 25/81/103 24/82/104 37/41/61 36/44/64
s 5
f 51/84/105 56/55/75 57/58/78 48/85/106
s 7
f 26/86/107 40/65/85 39/68/88 31/87/108
s 9
f 35/77/97 41/76/96 28/88/109 29/89/110
s off
f 32/90/111 33/91/112 43/92/113 42/93/114
f 21/40/115 20/39/116 45/94/117 44/95/118
f 33/91/119 34/96/120 46/97/121 43/92/122
f 22/43/123 21/40/124 44/95/125 47/98/126
f 23/83/127 24/82/128 49/99/129 48/100/130
f 30/101/131 31/102/132 51/103/133 50/104/134
f 24/82/135 25/81/136 52/105/137 49/99/138
f 29/106/139 30/101/140 50/104/141 53/107/142
f 34/96/143 35/108/144 54/109/145 46/97/146
f 36/44/147 22/43/148 47/98/149 55/110/150
f 39/111/151 32/90/152 42/93/153 56/112/154
f 20/39/155 38/42/156 57/113/157 45/94/158
f 35/108/159 29/106/160 53/107/161 54/109/162
f 31/102/163 39/111/164 56/112/165 51/103/166
f 23/83/167 48/100/168 57/113/169 38/42/170
f 18/114/171 17/115/172 60/116/173 59/117/174
f 17/115/175 40/118/176 58/119/177 60/116/178
f 41/120/179 19/121/180 62/122/181 61/123/182
f 19/121/183 18/114/184 59/117/185 62/122/186
f 26/124/187 27/125/188 64/126/189 63/127/190
f 40/118/191 26/124/192 63/127/193 58/119/194
f 27/125/195 28/128/196 65/129/197 64/126/198
f 28/128/199 41/120/200 61/123/201 65/129/202
f 66/130/203 67/131/204 36/44/205 55/110/206 52/105/207 25/81/208
s 2
f 3/133/209 4/132/210 24/82/104 23/83/211
f 1/135/212 38/42/62 37/41/61 2/134/213
f 37/41/61 24/82/104 4/132/210 3/133/209 23/83/211 38/42/62 1/135/212 2/134/213
