# This file uses centimeters as units for non-parametric coordinates.

mtllib Bed01_e.mtl
g default
v 0.000000 1.182370 -0.000000
v 5.044912 1.182370 -0.000000
v 0.000000 1.182370 -7.323247
v 5.044912 1.182370 -7.323247
v 0.000000 -0.000001 -7.323247
v 5.044912 -0.000001 -7.323247
v 0.000000 -0.000001 0.000000
v 5.044912 -0.000001 0.000000
vt 0.536883 0.207059
vt 0.651715 0.207059
vt 0.137809 0.810456
vt 0.536883 0.810456
vt 0.137809 0.939836
vt 0.536883 0.939836
vt 0.137809 0.071093
vt 0.536883 0.071093
vt 0.137809 0.207059
vt 0.651715 0.810456
vt 0.014528 0.207059
vt 0.986239 0.810456
vt 0.986239 0.207059
vt 0.014528 0.810456
vn 0.000000 1.000000 -0.000000
vn 0.000000 1.000000 -0.000000
vn 0.000000 1.000000 -0.000000
vn 0.000000 1.000000 -0.000000
vn 0.000000 -0.000000 -1.000000
vn 0.000000 -0.000000 -1.000000
vn 0.000000 -0.000000 -1.000000
vn 0.000000 -0.000000 -1.000000
vn 0.000000 -1.000000 0.000000
vn 0.000000 -1.000000 0.000000
vn 0.000000 -1.000000 0.000000
vn 0.000000 -1.000000 0.000000
vn 0.000000 0.000000 1.000000
vn 0.000000 0.000000 1.000000
vn 0.000000 0.000000 1.000000
vn 0.000000 0.000000 1.000000
vn 1.000000 0.000000 0.000000
vn 1.000000 0.000000 0.000000
vn 1.000000 0.000000 0.000000
vn 1.000000 0.000000 0.000000
vn -1.000000 0.000000 -0.000000
vn -1.000000 0.000000 -0.000000
vn -1.000000 0.000000 -0.000000
vn -1.000000 0.000000 -0.000000
s off
g Bed01
usemtl lambert4SG
f 1/9/1 2/1/2 4/4/3 3/3/4
f 3/3/5 4/4/6 6/6/7 5/5/8
f 5/12/9 6/10/10 8/2/11 7/13/12
f 7/7/13 8/8/14 2/1/15 1/9/16
f 2/1/17 8/2/18 6/10/19 4/4/20
f 7/11/21 1/9/22 3/3/23 5/14/24
