# This file uses centimeters as units for non-parametric coordinates.

mtllib CGJ_PlayersHouse_01.mtl
g default
v 0.000000 10.173649 -9.854605
v 0.000000 0.278811 -9.854605
v 9.477161 0.278811 -9.854605
v 9.477161 10.173649 -9.854605
v 0.000000 12.873651 -10.500000
v 10.227742 9.527840 -10.500000
v 10.227742 0.251416 -10.500000
v 0.000000 0.340370 -10.500000
v -9.477161 10.173649 0.000000
v -9.477161 10.173649 -9.854605
v 0.000000 10.173649 0.000000
v -9.477161 0.278809 9.854605
v -9.477161 0.278811 0.000000
v -9.477161 10.173649 9.854605
v -4.049420 12.125012 -7.566866
v -4.045643 14.789872 -7.563762
v -2.657223 12.525505 -7.566866
v -4.049420 12.109552 -6.159264
v -4.045643 14.789872 -6.175259
v -2.657139 14.789872 -7.563762
v -2.657223 12.505844 -6.159264
v 9.477161 0.000001 9.854605
v -9.477161 0.000001 0.000000
v -9.477161 -0.000001 9.854605
v 0.000000 12.873651 -11.560364
v -2.657139 14.789872 -6.175259
v 0.000000 13.347837 -10.500000
v 10.227742 10.396735 -10.500000
v 0.000000 13.454720 -11.560364
v -10.227742 10.396735 0.000000
v 0.000000 13.127679 0.000000
v -12.150442 9.161538 0.000000
v -12.150442 9.161538 11.560364
v -12.150442 9.742608 11.560364
v -12.150442 9.742608 0.000000
v 9.477161 0.000001 0.000000
v -10.227742 9.527840 0.000000
v -10.227742 9.527840 10.500000
v -4.305346 14.789872 -5.915555
v -4.305346 14.789872 -7.823465
v -2.397435 14.789872 -7.823465
v 12.150442 9.161538 -11.560364
v -4.305346 15.323720 -5.915555
v -4.305346 15.323720 -7.823465
v -2.397435 15.323720 -7.823465
v 12.150442 9.742608 -11.560364
v -10.227742 10.396735 10.500000
v 9.477161 0.000001 -9.854605
v 9.477161 0.278811 0.000000
v 9.477161 -0.001950 -9.854605
v 10.227742 -0.001950 -10.500000
v 10.227742 -0.001950 0.000000
v 9.477161 -0.001950 0.000000
v 10.227742 0.251416 0.000000
v -2.397435 15.323720 -5.915555
v 0.000000 -0.001950 10.500000
v -10.227742 -0.001950 10.500000
v -9.477161 -0.001950 9.854605
v 0.000000 -0.001950 9.854605
v -2.397435 14.789872 -5.915555
v 0.000000 12.873651 11.560364
v 0.000000 13.454720 11.560364
v -2.546510 7.713362 9.854605
v -2.546510 0.287137 9.854605
v -10.227742 0.251416 10.500000
v -2.546510 0.274390 10.500000
v -2.546510 7.713362 10.500000
v 0.000000 13.347837 10.500000
v 0.000000 0.274390 10.500000
v 9.477161 10.173649 0.000000
v 0.000000 10.173649 9.854605
v 0.000000 12.873651 10.500000
v 2.546510 7.713362 10.388419
v 2.546510 7.711889 10.500000
v 2.546510 7.713362 10.500000
v 10.227742 10.396735 0.000000
v 10.227742 10.396735 10.500000
v 9.477161 6.841174 -1.759672
v 9.477161 3.294847 -1.759672
v 10.227742 3.294847 -1.759672
v 10.227742 6.841174 -1.759672
v -2.546510 0.274390 9.854605
v 0.000000 0.274390 9.854605
v 0.000000 0.000001 9.854605
v 9.477161 0.278811 9.854605
v 10.227742 9.527840 10.500000
v 10.227742 -0.001950 10.500000
v 9.477161 -0.001950 9.854605
v 10.227742 9.527840 0.000000
v 12.150442 9.161538 0.000000
v 10.227742 0.251416 10.500000
v 0.000000 7.713362 9.854605
v 12.150442 9.742608 0.000000
v 12.150442 9.161538 11.560364
v 9.477161 3.294847 1.759672
v 9.477161 6.841174 1.759672
v 10.227742 6.841174 1.759672
v 10.227742 3.294847 1.759672
v 0.000000 7.713362 10.500000
v 12.150442 9.742608 11.560364
v 9.477161 10.173649 9.854605
v 2.546510 0.274390 9.854605
v 2.546510 7.713362 9.854605
v 2.546510 0.274390 10.500000
v 10.227742 10.396735 -6.143270
v 10.227742 10.396735 -7.569971
v 9.477161 3.294847 0.000000
v 10.227742 3.294847 0.000000
v 9.477161 6.841174 0.000000
v 10.227742 6.841174 0.000000
v -10.227742 0.251416 0.000000
v -10.227742 10.396735 -10.500000
v -10.227742 9.527840 -10.500000
v -12.150442 9.742608 -11.560364
v -12.150442 9.161538 -11.560364
v -10.227742 -0.001950 0.000000
v -9.477161 -0.001950 0.000000
v -9.477161 0.000001 -9.854605
v 0.000000 0.000001 -9.854605
v 0.000000 -0.001950 -10.500000
v 0.000000 -0.001950 -9.854605
v -9.477161 0.278811 -9.854605
v -10.227742 0.251416 -10.500000
v -10.227742 -0.001950 -10.500000
v -9.477161 -0.001950 -9.854605
vt 0.674603 0.599686
vt 0.674603 0.423573
vt 0.569266 0.423573
vt 0.569266 0.599686
vt 0.505002 0.307476
vt 0.353697 0.240482
vt 0.353697 0.017643
vt 0.505002 0.019424
vt 0.779939 0.705023
vt 0.779939 0.599686
vt 0.674603 0.705023
vt 0.779939 0.986472
vt 0.885276 0.986472
vt 0.885276 0.810359
vt 0.779939 0.810359
vt 0.475418 0.596163
vt 0.475394 0.672618
vt 0.446822 0.596163
vt 0.389605 0.596163
vt 0.389571 0.672618
vt 0.360875 0.596163
vt 0.360963 0.672618
vt 0.446787 0.672618
vt 0.418142 0.596163
vt 0.269231 0.984733
vt 0.151941 0.758980
vt 0.269231 0.758980
vt 0.417868 0.774897
vt 0.417868 0.786027
vt 0.307094 0.774897
vt 0.418179 0.672618
vt 0.150537 0.500257
vt 0.262142 0.500257
vt 0.150537 0.512418
vt 0.104228 0.449852
vt 0.038931 0.379832
vt 0.150537 0.379832
vt 0.157654 0.231239
vt 0.300255 0.231239
vt 0.300255 0.242430
vt 0.157654 0.242430
vt 0.122472 0.467463
vt 0.122472 0.449852
vt 0.151941 0.984733
vt 0.528643 0.664687
vt 0.528643 0.554477
vt 0.549467 0.543347
vt 0.549467 0.664687
vt 0.469651 0.727963
vt 0.469651 0.700341
vt 0.474818 0.695175
vt 0.474818 0.733129
vt 0.442029 0.727963
vt 0.436863 0.733129
vt 0.286270 0.786027
vt 0.360414 0.677372
vt 0.389223 0.677372
vt 0.389223 0.690113
vt 0.360414 0.690113
vt 0.475649 0.690113
vt 0.446840 0.690113
vt 0.446840 0.677372
vt 0.475649 0.677372
vt 0.283123 0.512418
vt 0.038931 0.259407
vt 0.017951 0.379832
vt 0.017951 0.247246
vt 0.358593 0.991435
vt 0.463929 0.991435
vt 0.463929 0.986472
vt 0.358593 0.986472
vt 0.320745 0.762697
vt 0.313081 0.769116
vt 0.313081 0.664687
vt 0.320745 0.664687
vt 0.277043 0.544021
vt 0.144283 0.544021
vt 0.144283 0.538566
vt 0.277043 0.538566
vt 0.394651 0.694402
vt 0.433375 0.694402
vt 0.433375 0.733126
vt 0.394651 0.733126
vt 0.417510 0.560258
vt 0.521939 0.560258
vt 0.514275 0.566677
vt 0.417510 0.566677
vt 0.442029 0.700341
vt 0.436863 0.695175
vt 0.418032 0.677372
vt 0.418032 0.690113
vt 0.504182 0.330853
vt 0.324659 0.258114
vt 0.324659 0.246727
vt 0.504182 0.319467
vt 0.417868 0.543347
vt 0.150537 0.247246
vt 0.702906 0.854149
vt 0.702906 0.986324
vt 0.688542 0.017643
vt 0.802175 0.018010
vt 0.802175 0.190556
vt 0.688542 0.240482
vt 0.150537 0.259407
vt 0.688542 0.011557
vt 0.839847 0.011557
vt 0.839847 0.017908
vt 0.569266 0.705023
vt 0.674603 0.810359
vt 0.417868 0.554477
vt 0.944245 0.641184
vt 0.941861 0.641137
vt 0.941861 0.641184
vt 0.262142 0.379832
vt 0.262142 0.259407
vt 0.969184 0.599199
vt 0.969184 0.697607
vt 0.982188 0.697607
vt 0.982188 0.599199
vt 0.702906 0.986551
vt 0.674603 0.986551
vt 0.674603 0.991435
vt 0.779939 0.991435
vt 0.569266 0.991435
vt 0.569266 0.986472
vt 0.307094 0.554477
vt 0.313081 0.560258
vt 0.320745 0.566677
vt 0.307094 0.664687
vt 0.286270 0.664687
vt 0.011523 0.538566
vt 0.011523 0.544021
vt 0.674603 0.854149
vt 0.157429 0.231239
vt 0.300255 0.231239
vt 0.300255 0.242430
vt 0.157429 0.242430
vt 0.286270 0.543347
vt 0.969184 0.402383
vt 0.969184 0.500791
vt 0.982188 0.500791
vt 0.982188 0.402383
vt 0.839847 0.188878
vt 0.839847 0.307476
vt 0.324660 0.246727
vt 0.504182 0.319467
vt 0.504182 0.330853
vt 0.324660 0.258114
vt 0.283123 0.247246
vt 0.912011 0.400031
vt 0.912011 0.400444
vt 0.912011 0.641184
vt 0.925801 0.641184
vt 0.925801 0.400031
vt 0.569266 0.810359
vt 0.646299 0.986551
vt 0.646299 0.854149
vt 0.877519 0.018010
vt 0.991152 0.017643
vt 0.991152 0.240482
vt 0.877519 0.190522
vt 0.896457 0.431679
vt 0.847253 0.431679
vt 0.798049 0.431679
vt 0.798049 0.445470
vt 0.847253 0.445470
vt 0.896457 0.445470
vt 0.991152 0.011557
vt 0.283123 0.379832
vt 0.941861 0.400031
vt 0.955651 0.641184
vt 0.955651 0.400031
vt 0.014828 0.231239
vt 0.014828 0.242430
vt 0.262142 0.449627
vt 0.262142 0.468774
vt 0.683704 0.246727
vt 0.683704 0.258114
vt 0.969184 0.746811
vt 0.969184 0.796015
vt 0.982188 0.796015
vt 0.982188 0.746811
vt 0.877519 0.190556
vt 0.969184 0.549995
vt 0.982188 0.549995
vt 0.463929 0.932791
vt 0.445120 0.932791
vt 0.445120 0.869672
vt 0.463929 0.869672
vt 0.463929 0.810359
vt 0.358593 0.810359
vt 0.144283 0.743742
vt 0.144283 0.685898
vt 0.166532 0.685898
vt 0.166532 0.609546
vt 0.144283 0.609546
vt 0.277043 0.743742
vt 0.896457 0.404522
vt 0.847253 0.404522
vt 0.798049 0.404522
vt 0.798049 0.418313
vt 0.847253 0.418313
vt 0.896457 0.418313
vt 0.896457 0.406906
vt 0.482739 0.869672
vt 0.482739 0.932791
vt 0.122034 0.609546
vt 0.122034 0.685898
vt 0.011523 0.743742
vt 0.151472 0.012748
vt 0.288692 0.012748
vt 0.288692 0.219180
vt 0.151472 0.219180
vt 0.038931 0.500257
vt 0.528643 0.774897
vt 0.104228 0.467396
vt 0.017951 0.512418
vt 0.885276 0.991435
vt 0.549467 0.786027
vt 0.521939 0.664687
vt 0.514275 0.664687
vt 0.151472 0.007110
vt 0.288692 0.007110
vt 0.034652 0.758980
vt 0.034652 0.984733
vt 0.674603 0.418611
vt 0.569266 0.418611
vt 0.353697 0.011557
vt 0.505002 0.011557
vt 0.417510 0.769116
vt 0.417510 0.762697
vt 0.683704 0.258114
vt 0.683704 0.246727
vt 0.014828 0.231239
vt 0.014828 0.242430
vt 0.990612 0.986472
vt 0.990612 0.810359
vt 0.779939 0.423573
vt 0.656307 0.240482
vt 0.656307 0.017643
vt 0.014252 0.012748
vt 0.014252 0.219180
vt 0.990612 0.991435
vt 0.779939 0.418611
vt 0.521939 0.769116
vt 0.514275 0.762697
vt 0.014252 0.007110
vt 0.656307 0.011557
vn 0.000000 0.000000 1.000000
vn 0.000000 0.000000 1.000000
vn 0.000000 0.000000 1.000000
vn 0.000000 0.000000 1.000000
vn -0.000000 0.000000 -1.000000
vn 0.000000 0.000000 -1.000000
vn 0.000000 0.000000 -1.000000
vn -0.000000 0.000000 -1.000000
vn 0.000000 -1.000000 0.000000
vn 0.000000 -1.000000 0.000000
vn 0.000000 -1.000000 0.000000
vn 0.000000 -1.000000 0.000000
vn 1.000000 0.000000 0.000000
vn 1.000000 0.000000 0.000000
vn 1.000000 0.000000 0.000000
vn 1.000000 0.000000 0.000000
vn -0.000181 0.001260 -0.999999
vn -0.000181 0.001260 -0.999999
vn -0.000181 0.001260 -0.999999
vn -0.000181 0.001260 -0.999999
vn -0.999999 0.001413 0.000008
vn -0.999999 0.001413 0.000008
vn -0.999999 0.001413 0.000008
vn -0.999999 0.001413 0.000008
vn -0.000918 0.006445 0.999979
vn -0.000918 0.006445 0.999979
vn -0.000918 0.006445 0.999979
vn -0.000918 0.006445 0.999979
vn 0.014708 0.999892 0.000000
vn 0.014708 0.999892 0.000000
vn -0.014708 0.999892 0.000000
vn -0.014708 0.999892 0.000000
vn -0.299049 -0.948180 -0.107351
vn -0.299049 -0.948180 -0.107351
vn -0.299049 -0.948180 -0.107351
vn -0.299049 -0.948180 -0.107351
vn 0.285355 0.958354 0.011409
vn 0.285355 0.958354 0.011409
vn 0.285355 0.958354 0.011409
vn 0.285355 0.958354 0.011409
vn -0.263950 0.964516 0.006209
vn -0.266741 0.963749 -0.006026
vn 0.061076 0.998131 -0.002082
vn -0.264882 0.964175 0.014312
vn -1.000000 0.000000 0.000000
vn -1.000000 0.000000 0.000000
vn -1.000000 0.000000 0.000000
vn -1.000000 0.000000 0.000000
vn 0.198763 0.979981 0.011430
vn -0.275157 0.961219 0.018647
vn 0.187148 -0.982332 0.000000
vn 0.187148 -0.982332 0.000000
vn 0.187148 -0.982332 0.000000
vn 0.187148 -0.982332 0.000000
vn 0.000000 -1.000000 0.000000
vn 0.000000 -1.000000 0.000000
vn 0.000000 -1.000000 0.000000
vn 0.000000 -1.000000 0.000000
vn 0.000000 -1.000000 0.000003
vn 0.000000 -1.000000 0.000003
vn 0.000000 -1.000000 0.000003
vn 0.000000 -1.000000 0.000003
vn -1.000000 0.000000 0.000000
vn -1.000000 0.000000 0.000000
vn -1.000000 0.000000 0.000000
vn -1.000000 0.000000 0.000000
vn 0.000000 0.000000 -1.000000
vn 0.000000 0.000000 -1.000000
vn 0.000000 0.000000 -1.000000
vn 0.000000 0.000000 -1.000000
vn 1.000000 -0.000037 -0.000000
vn 1.000000 -0.000037 -0.000000
vn 1.000000 -0.000037 -0.000000
vn 1.000000 -0.000037 -0.000000
vn -0.322083 0.946711 0.000000
vn -0.322083 0.946711 0.000000
vn -0.322083 0.946711 0.000000
vn -0.322083 0.946711 0.000000
vn -0.267629 0.963469 -0.010101
vn 0.000000 0.999945 -0.010483
vn -0.014708 0.999892 0.000000
vn -1.000000 0.000000 0.000000
vn -1.000000 0.000000 0.000000
vn 0.000000 -1.000000 0.000000
vn 0.000000 -1.000000 0.000000
vn 0.000000 -1.000000 0.000000
vn 0.000000 -1.000000 0.000000
vn 1.000000 0.000000 0.000000
vn 1.000000 0.000000 0.000000
vn 1.000000 0.000000 0.000000
vn 1.000000 0.000000 0.000000
vn 0.000000 1.000000 0.000000
vn 0.000000 1.000000 0.000000
vn 0.000000 1.000000 0.000000
vn 0.000000 1.000000 0.000000
vn 0.000000 -1.000000 0.000000
vn 0.000000 -1.000000 0.000000
vn 0.000000 -1.000000 0.000000
vn 0.000000 -1.000000 0.000000
vn 0.000000 -1.000000 -0.000004
vn 0.000000 -1.000000 -0.000004
vn 0.000000 -1.000000 -0.000004
vn 0.000000 -1.000000 -0.000004
vn 0.000000 -1.000000 0.000000
vn 0.000000 -1.000000 0.000000
vn 0.000000 -1.000000 0.000000
vn 0.000000 -1.000000 0.000000
vn 0.000000 0.000000 1.000000
vn 0.000000 0.000000 1.000000
vn 0.000000 0.000000 1.000000
vn 0.000000 0.000000 1.000000
vn 1.000000 0.000000 0.000000
vn 1.000000 0.000000 0.000000
vn 1.000000 0.000000 0.000000
vn 1.000000 0.000000 0.000000
vn -0.000000 0.000000 -1.000000
vn -0.000001 0.000000 -1.000000
vn -0.000001 0.000000 -1.000000
vn -0.000000 0.000000 -1.000000
vn 0.299049 -0.948180 0.107351
vn 0.299049 -0.948180 0.107351
vn 0.299049 -0.948180 0.107351
vn 0.299049 -0.948180 0.107351
vn -0.285355 0.958354 -0.011410
vn -0.285355 0.958354 -0.011410
vn -0.285355 0.958354 -0.011410
vn -0.285355 0.958354 -0.011410
vn -0.000000 0.000000 -1.000000
vn -0.000000 0.000000 -1.000000
vn -0.000000 0.000000 -1.000000
vn -0.000000 0.000000 -1.000000
vn -0.000000 0.000000 1.000000
vn -0.000000 0.000000 1.000000
vn -0.000000 0.000000 1.000000
vn -0.000000 0.000000 1.000000
vn 0.000000 0.000000 1.000000
vn 0.000000 0.000000 1.000000
vn 0.000000 0.000000 1.000000
vn 0.000000 -1.000000 0.000000
vn 0.000000 -1.000000 0.000000
vn 0.000000 -1.000000 0.000000
vn 0.000000 -1.000000 0.000000
vn -1.000000 0.000000 0.000000
vn -1.000000 0.000000 0.000000
vn -1.000000 0.000000 0.000000
vn 0.267629 0.963469 -0.010101
vn 0.267642 0.963518 0.000000
vn 0.000000 0.000000 1.000000
vn 0.000000 0.000000 1.000000
vn 0.000000 0.000000 1.000000
vn 0.000000 0.000000 1.000000
vn 0.000000 0.000000 -1.000000
vn 0.000000 0.000000 -1.000000
vn 0.000000 0.000000 -1.000000
vn 0.000000 0.000000 -1.000000
vn -1.000000 0.000000 0.000000
vn -0.299049 -0.948180 0.107351
vn -0.299049 -0.948180 0.107351
vn -0.299049 -0.948180 0.107351
vn -0.299049 -0.948180 0.107351
vn 0.000000 -1.000000 0.000000
vn 0.000000 -1.000000 0.000000
vn 0.285355 0.958354 -0.011410
vn 0.285355 0.958354 -0.011410
vn 0.285355 0.958354 -0.011410
vn 0.285355 0.958354 -0.011410
vn -0.187148 -0.982332 0.000000
vn -0.187148 -0.982332 0.000000
vn -0.187148 -0.982332 0.000000
vn -0.187148 -0.982332 0.000000
vn 1.000000 0.000000 0.000000
vn 1.000000 0.000000 0.000000
vn 0.000000 0.000000 -1.000000
vn 0.000000 0.000000 -1.000000
vn 1.000000 0.000000 0.000000
vn 1.000000 0.000000 0.000000
vn 1.000000 0.000000 0.000000
vn 1.000000 0.000000 0.000000
vn 0.000000 0.000000 -1.000000
vn 0.000000 0.000000 -1.000000
vn 0.000000 0.000000 -1.000000
vn 0.000000 0.000000 -1.000000
vn -0.000000 0.000000 1.000000
vn -0.000000 0.000000 1.000000
vn 0.000000 0.000000 1.000000
vn -0.000000 0.000000 1.000000
vn -0.000000 0.000000 1.000000
vn 0.000000 0.000000 1.000000
vn 1.000000 0.000000 0.000000
vn 1.000000 0.000000 0.000000
vn 1.000000 0.000000 0.000000
vn 1.000000 0.000000 0.000000
vn 1.000000 0.000000 0.000000
vn 0.000000 -1.000000 0.000000
vn 0.000000 0.000000 -1.000000
vn 0.000000 0.000000 -1.000000
vn 0.000000 0.000000 -1.000000
vn 0.000000 0.000000 -1.000000
vn 0.000000 0.000000 1.000000
vn 0.000000 0.000000 1.000000
vn -0.000000 0.000000 1.000000
vn -0.000000 0.000000 1.000000
vn -0.000000 0.000000 -1.000000
vn 0.000000 1.000000 0.000000
vn 0.000000 1.000000 0.000000
vn 0.000000 1.000000 0.000000
vn 0.000000 1.000000 0.000000
vn 0.000000 0.000000 1.000000
vn -0.187148 -0.982332 0.000000
vn -0.187148 -0.982332 0.000000
vn -0.187148 -0.982332 0.000000
vn -0.187148 -0.982332 0.000000
vn 0.322083 0.946711 0.000000
vn 0.322083 0.946711 0.000000
vn 0.322083 0.946711 0.000000
vn 0.322083 0.946711 0.000000
vn -1.000000 0.000000 0.000000
vn -1.000000 0.000000 0.000000
vn -1.000000 0.000000 0.000000
vn 1.000000 0.000000 0.000000
vn 1.000000 0.000000 0.000000
vn 0.267629 0.963469 0.010101
vn 0.267629 0.963469 0.010101
vn 0.267629 0.963469 0.010101
vn -0.000001 0.000000 1.000000
vn -0.000001 0.000000 1.000000
vn 0.000000 1.000000 0.000000
vn 0.000000 1.000000 0.000000
vn 0.000000 1.000000 0.000000
vn 0.000000 1.000000 0.000000
vn 0.322083 0.946711 0.000000
vn 0.322083 0.946711 0.000000
vn 0.322083 0.946711 0.000000
vn 0.322083 0.946711 0.000000
vn 0.322083 0.946711 0.000000
vn 0.322083 0.946711 0.000000
vn -0.000000 0.000000 1.000000
vn 0.000000 -1.000000 0.000000
vn 0.000000 -1.000000 0.000000
vn 0.000000 -1.000000 0.000000
vn 0.000000 -1.000000 0.000000
vn -1.000000 0.000000 0.000000
vn -1.000000 0.000000 0.000000
vn 1.000000 -0.000000 0.000000
vn 1.000000 -0.000000 0.000000
vn 1.000000 -0.000000 0.000000
vn 1.000000 -0.000000 0.000000
vn 0.000000 -1.000000 0.000000
vn 0.000000 -1.000000 0.000000
vn 0.000000 -1.000000 0.000000
vn 0.000000 -1.000000 0.000000
vn -1.000000 0.000000 0.000000
vn -1.000000 0.000000 0.000000
vn -1.000000 0.000000 0.000000
vn -1.000000 0.000000 0.000000
vn 1.000000 0.000000 0.000000
vn 1.000000 0.000000 0.000000
vn -1.000000 0.000000 0.000000
vn -1.000000 0.000000 0.000000
vn -1.000000 0.000000 0.000000
vn -1.000000 0.000000 0.000000
vn -0.269331 0.963040 0.003733
vn -0.271512 0.962404 0.007716
vn -0.285355 0.958354 0.011410
vn -0.285355 0.958354 0.011410
vn -0.285355 0.958354 0.011410
vn -0.285355 0.958354 0.011410
vn 0.299049 -0.948180 -0.107351
vn 0.299049 -0.948180 -0.107351
vn 0.299049 -0.948180 -0.107351
vn 0.299049 -0.948180 -0.107351
vn 0.000000 -1.000000 0.000000
vn 0.000000 -1.000000 0.000000
vn -1.000000 0.000000 0.000000
vn -1.000000 0.000000 0.000000
vn 0.014708 0.999892 0.000000
vn 0.000000 0.000000 1.000000
vn 0.000000 0.000000 1.000000
vn 0.000000 0.000000 -1.000000
vn -0.000000 0.000000 -1.000000
vn 0.000000 -1.000000 0.000000
vn 0.000000 -1.000000 0.000000
vn 0.000000 0.000000 -1.000000
vn 0.000000 0.000000 -1.000000
vn -0.322083 0.946711 0.000000
vn -0.322083 0.946711 0.000000
vn -0.322083 0.946711 0.000000
vn -0.322083 0.946711 0.000000
vn 0.187148 -0.982332 0.000000
vn 0.187148 -0.982332 0.000000
vn 0.187148 -0.982332 0.000000
vn 0.187148 -0.982332 0.000000
vn -1.000000 0.000000 0.000000
vn -1.000000 0.000000 0.000000
vn 1.000000 0.000000 0.000000
vn 1.000000 0.000000 0.000000
vn 0.000000 0.000000 1.000000
vn 0.000000 0.000000 1.000000
vn -0.000000 0.000000 -1.000000
vn -0.000000 0.000000 -1.000000
vn -1.000000 0.000000 0.000000
vn -1.000000 0.000000 0.000000
vn 0.000000 0.000000 1.000000
vn 0.000000 -1.000000 0.000000
vn 0.000000 -1.000000 0.000000
vn -1.000000 0.000000 0.000000
vn -0.000000 0.000000 -1.000000
vn 1.000000 -0.000000 0.000000
vn 1.000000 -0.000000 0.000000
vn 1.000000 0.000000 0.000000
vn -1.000000 0.000000 0.000000
vn -1.000000 0.000000 0.000000
vn -1.000000 0.000000 0.000000
vn 0.000000 1.000000 0.000000
vn 0.000000 1.000000 0.000000
vn 0.000000 -1.000000 0.000000
vn 0.000000 -1.000000 0.000000
vn 0.000000 -1.000000 0.000000
vn 0.000000 -1.000000 0.000000
vn 0.000000 -1.000000 0.000000
vn 0.000000 1.000000 0.000000
vn 0.000000 1.000000 0.000000
s 1
g House3
usemtl initialShadingGroup
f 1/1/1 2/2/2 3/3/3 4/4/4
s 2
f 5/5/5 6/6/6 7/7/7 8/8/8
s 3
f 9/9/9 10/10/10 1/1/11 11/11/12
s 4
f 12/12/13 13/13/14 9/14/15 14/15/16
s off
f 17/18/17 15/16/18 16/17/19 20/23/20
f 15/21/21 18/19/22 19/20/23 16/22/24
f 19/20/25 18/19/26 21/24/27 26/31/28
s 4
f 23/26/29 24/27/30 22/25/31 36/44/32
s off
f 6/30/33 5/28/34 25/29/35 42/55/36
f 29/34/37 27/32/38 28/33/39 46/64/40
s 5
f 18/35/41 30/36/42 31/37/43 21/43/44
s 6
f 32/38/45 33/39/46 34/40/47 35/41/48
s 5
f 31/37/43 27/32/49 17/42/50 21/43/44
s off
f 37/45/51 38/46/52 33/47/53 32/48/54
f 16/49/55 19/50/56 39/51/57 40/52/58
f 20/53/59 16/49/60 40/52/61 41/54/62
f 40/56/63 39/57/64 43/58/65 44/59/66
f 44/60/67 45/61/68 41/62/69 40/63/70
f 21/24/71 17/18/72 20/23/73 26/31/74
f 47/65/75 30/36/76 35/66/77 34/67/78
s 5
f 31/37/43 30/36/42 47/65/79 68/104/80
s 4
f 48/68/81 36/69/32 49/70/82 3/71/83
s 8
f 50/72/84 51/73/85 52/74/86 53/75/87
s 9
f 7/76/88 54/77/89 52/78/90 51/79/91
s off
f 43/80/92 55/81/93 45/82/94 44/83/95
s 8
f 56/84/96 57/85/97 58/86/98 59/87/99
s off
f 19/50/100 26/88/101 60/89/102 39/51/103
f 26/88/104 20/53/105 41/54/106 60/89/107
f 39/57/108 60/90/109 55/91/110 43/58/111
f 60/90/112 41/62/113 45/61/114 55/91/115
s 11
f 29/92/116 46/93/117 42/94/118 25/95/119
s off
f 61/96/120 33/47/121 38/46/122 72/110/123
f 47/65/124 34/67/125 62/97/126 68/104/127
s 12
f 14/15/128 63/98/129 64/99/130 12/12/131
s 13
f 65/100/132 66/101/133 67/102/134 38/103/135
f 57/105/136 56/106/137 69/107/138 66/101/133 65/100/132
s 3
f 11/11/12 1/1/11 4/4/139 70/108/140
f 14/15/141 9/9/9 11/11/12 71/109/142
s 14
f 73/111/143 74/112/144 75/113/145
s 5
f 77/115/146 76/114/147 31/37/43 68/104/80
s off
f 78/116/148 79/117/149 80/118/150 81/119/151
s 12
f 12/12/131 64/99/130 82/120/152 83/121/153 84/122/154 24/123/155
s 4
f 49/70/82 36/69/32 22/124/31 85/125/156
s off
f 61/96/157 72/110/158 86/126/159 94/138/160
s 8
f 53/75/87 52/74/86 87/127/161 88/128/162
s off
f 77/115/163 68/104/164 62/97/165 100/149/166
f 89/129/167 6/30/168 42/55/169 90/130/170
s 8
f 87/127/161 56/84/96 59/87/99 88/128/162
s 9
f 87/131/171 52/78/90 54/77/89 91/132/172
s 12
f 71/109/173 92/133/174 63/98/129 14/15/128
s 15
f 90/134/175 42/135/176 46/136/177 93/137/178
s off
f 95/139/179 96/140/180 97/141/181 98/142/182
s 13
f 38/103/135 67/102/134 99/143/183 72/144/184
s 16
f 33/145/185 61/146/186 62/147/187 34/148/188
s off
f 82/150/189 64/151/190 63/152/191 67/153/192 66/154/193
s 3
f 71/109/142 11/11/12 70/108/140 101/155/194
s 12
f 85/125/195 102/156/196 103/157/197 101/155/198
s 13
f 104/158/199 91/159/200 86/160/201 74/161/202
s 12
f 101/155/198 103/157/197 92/133/174 71/109/173
f 22/124/203 84/122/154 83/121/153 102/156/196 85/125/195
s 17
f 69/166/204 83/163/205 82/164/206 66/165/207
s 13
f 56/106/137 87/168/208 91/159/200 104/158/199 69/107/138
s off
f 86/126/209 89/129/210 90/130/211 94/138/212
f 76/114/213 77/115/214 100/149/215 93/169/216
s 14
f 104/170/217 74/112/144 73/111/143 103/171/218 102/172/219
s 15
f 94/173/220 90/134/175 93/137/178 100/174/221
s 5
f 105/175/222 106/176/223 28/33/224 27/32/49 31/37/43 76/114/147
s 16
f 61/146/186 94/177/225 100/178/226 62/147/187
s 18
f 108/182/227 107/179/228 95/180/229 98/181/230
s off
f 106/176/231 105/175/232 76/114/233 93/169/234 46/64/235 28/33/236
s 13
f 74/161/202 86/160/201 72/144/184 99/143/183 75/183/237
s 19
f 110/185/238 109/184/239 78/116/240 81/119/241
s 4
f 3/71/83 49/70/82 107/186/242 79/187/243
s 9
f 89/192/244 110/193/245 81/194/246 6/197/247
s 21
f 92/202/248 99/199/249 67/200/250 63/201/251
s 4
f 70/190/252 109/189/253 96/205/254 101/155/255
s 9
f 91/132/172 54/77/89 108/196/256 98/207/257
s 23
f 111/210/258 65/211/259 38/212/260 37/213/261
s 5
f 17/42/50 27/32/49 112/214/262 15/216/263
s off
f 112/214/264 27/32/265 29/34/266 114/217/267
f 25/29/268 5/28/269 113/215/270 115/219/271
s 5
f 18/35/41 15/216/263 112/214/262 30/36/42
s 4
f 24/123/30 23/218/29 13/13/14 12/12/13
s 8
f 58/86/98 57/85/97 116/220/272 117/221/273
s 23
f 116/222/274 57/223/275 65/211/259 111/210/258
s 4
f 118/224/276 23/26/29 36/44/32 48/225/81
s 1
f 2/2/2 119/226/277 48/227/278 3/3/3
s 2
f 8/8/8 7/7/7 51/228/279 120/229/280
s 8
f 120/230/281 51/73/85 50/72/84 121/231/282
s 11
f 114/232/283 29/92/116 25/95/119 115/233/284
s off
f 112/214/285 114/217/286 35/66/287 30/36/288
f 113/215/289 37/45/290 32/48/291 115/219/292
s 6
f 115/234/293 32/38/45 35/41/48 114/235/294
s 4
f 9/14/15 13/13/14 122/236/295 10/237/296
s 1
f 10/10/297 122/238/298 2/2/2 1/1/1
s 2
f 113/239/299 5/5/5 8/8/8 123/240/300
s 23
f 123/241/301 111/210/258 37/213/261 113/242/302
s 4
f 13/13/14 23/218/29 118/243/276 122/236/295
s 1
f 122/238/298 118/244/303 119/226/277 2/2/2
s 8
f 117/221/273 116/220/272 124/245/304 125/246/305
f 124/245/304 120/230/281 121/231/282 125/246/305
s 23
f 124/247/306 116/222/274 111/210/258 123/241/301
s 2
f 123/240/300 8/8/8 120/229/280 124/248/307
s 9
f 86/209/308 97/208/309 110/193/245 89/192/244
f 6/197/247 81/194/246 80/195/310 7/76/88
f 91/132/172 98/207/257 97/208/309 86/209/308
f 7/76/88 80/195/310 108/196/256 54/77/89
s 4
f 4/191/311 78/188/312 109/189/253 70/190/252
f 101/155/255 96/205/254 95/206/313 85/125/156
f 85/125/156 95/206/313 107/186/242 49/70/82
f 3/71/83 79/187/243 78/188/312 4/191/311
s 18
f 79/117/314 107/179/228 108/182/227 80/118/315
s 19
f 96/140/316 109/184/239 110/185/238 97/141/317
s 21
f 75/198/318 99/199/249 92/202/248 103/203/319 73/204/320
s 17
f 102/162/321 83/163/205 69/166/204 104/167/322
